<?xml version="1.0" encoding="UTF-8"?>
<svg width="46px" height="46px" viewBox="0 0 46 46" version="1.1" xmlns="http://www.w3.org/2000/svg" xmlns:xlink="http://www.w3.org/1999/xlink">
    <g id="Shift-HigherEd-WebsiteMini-Desktop" stroke="none" stroke-width="1" fill="none" fill-rule="evenodd">
        <g id="Shift-HigherEd-WebsiteMini-Desktop-PAGE1" transform="translate(-1248.000000, -217.000000)" fill="#C59E78">
            <g id="BODY">
                <g id="FORM" transform="translate(852.000000, 195.000000)">
                    <g id="Donate-Online">
                        <g id="Group" transform="translate(396.000000, 22.000000)">
                            <circle id="Oval" fill-opacity="0.1" cx="23" cy="23" r="23"></circle>
                            <g id="ICON---Website" transform="translate(11.000000, 11.000000)">
                                <g id="Group-5">
                                    <path d="M2.79312641,16.3991291 L7.73869318,16.3991291 C8.0447822,18.4868583 8.56904332,20.3595663 9.30485341,21.6921474 C6.45241424,20.9257863 4.08901958,18.9710614 2.79312641,16.3991291 M1.71885935,11.8735649 C1.71885935,10.8945804 1.8592273,9.94711918 2.12162493,9.05068054 L7.54170801,9.05068054 C7.46123323,9.97702045 7.4203905,10.9260684 7.4203905,11.8735649 C7.4203905,12.8216255 7.46123323,13.7706735 7.54170801,14.6970487 L2.12162493,14.6970487 C1.8592273,13.8000458 1.71885935,12.8531488 1.71885935,11.8735649 M9.30485341,2.05554654 C8.56904332,3.38812764 8.0447822,5.26087094 7.73869318,7.34860014 L2.79312641,7.34860014 C4.08901958,4.77659732 6.45241424,2.82134344 9.30485341,2.05554654 M10.1821709,4.34881171 C10.7976605,2.52049718 11.5338979,1.70209097 11.9905389,1.70209097 C12.4470374,1.70209097 13.1834172,2.52049718 13.7989068,4.34881171 C14.0959869,5.23093441 14.3337792,6.24535614 14.506622,7.34860014 L9.47442018,7.34860014 C9.64733412,6.24479196 9.8850908,5.23093441 10.1821709,4.34881171 M21.1879513,7.34860014 L16.2423846,7.34860014 C15.9362955,5.26087094 15.4120344,3.38812764 14.6762599,2.05554654 C17.5286635,2.82134344 19.8920938,4.77659732 21.1879513,7.34860014 M11.9905389,22.0456382 C11.5338979,22.0456382 10.7976605,21.227232 10.1821709,19.3988822 C9.8850908,18.5167948 9.64772582,17.5023378 9.47442018,16.3991291 L12.1097199,16.3991291 L11.631073,14.6970487 L9.26571988,14.6970487 C9.18278813,13.7895381 9.13927478,12.842641 9.13927478,11.8735649 C9.13927478,10.904524 9.18278813,9.95815585 9.26571988,9.05068054 L14.7153223,9.05068054 C14.7977199,9.95815585 14.8412688,10.904524 14.8412688,11.8735649 C14.8412688,11.9725776 14.8388475,12.0702504 14.8379573,12.1687694 L16.5372214,13.0639386 C16.5513935,12.6680642 16.5600819,12.270885 16.5600819,11.8735649 C16.5600819,10.9260684 16.5198445,9.97702045 16.4393341,9.05068054 L21.8593104,9.05068054 C22.1212807,9.94711918 22.262254,10.8945804 22.262254,11.8735649 C22.262254,12.8531488 22.1212807,13.80061 21.8593104,14.6970487 L19.6373163,14.6970487 L23.0359513,16.4873872 C23.1204855,16.2896791 23.2016724,16.090208 23.2754884,15.8871756 C23.2906932,15.852902 23.3034409,15.81683 23.3135537,15.7802645 C23.7454469,14.5563223 23.9810671,13.2414774 23.9810671,11.8735649 C23.9810671,10.5055113 23.7454469,9.19137165 23.3135537,7.96742948 C23.3034409,7.93082863 23.2906932,7.89479196 23.2754884,7.86048307 C21.6103371,3.28230959 17.1805923,1.05782793e-05 11.9905389,1.05782793e-05 C6.80048546,1.05782793e-05 2.37074065,3.28230959 0.705589318,7.86048307 C0.690420178,7.89479196 0.67752997,7.93082863 0.667488427,7.96742948 C0.235630861,9.19137165 1.06824926e-05,10.5055113 1.06824926e-05,11.8735649 C1.06824926e-05,13.2414774 0.235630861,14.5563223 0.667488427,15.7802645 C0.678099703,15.81683 0.690420178,15.852902 0.705589318,15.8871756 C2.37127478,20.4653843 6.80048546,23.7476834 11.9905389,23.7476834 C12.7182659,23.7476834 13.4303252,23.6810049 14.122622,23.5573801 L13.2986457,20.627232 C12.8176131,21.5974365 12.3277496,22.0456382 11.9905389,22.0456382" id="Fill-2"></path>
                                    <polygon id="Fill-1" points="12.8909697 14.6970346 13.0594682 15.2962236 14.0152665 18.6952362 14.4059964 20.0846227 15.660584 24.5462236 16.9462576 22.6845874 16.9462932 22.6845874 18.0001923 21.1585296 21.1107561 24.9930501 22.9297353 23.5461178 20.3553258 20.3724929 19.8192071 19.7115973 23.6642635 18.1797567 22.5075632 17.5703773 22.4414386 17.5355395 20.2841092 16.399115 19.338851 15.9011953 16.4628392 14.3861742 14.7979371 13.5090585 12.1672309 12.1233039"></polygon>
                                </g>
                            </g>
                        </g>
                    </g>
                </g>
            </g>
        </g>
    </g>
</svg>
