<?xml version="1.0" encoding="UTF-8"?>
<svg width="46px" height="46px" viewBox="-16.5 -10.5 46 46" version="1.1" xmlns="http://www.w3.org/2000/svg" xmlns:xlink="http://www.w3.org/1999/xlink">
    <g id="Shift-HigherEd-WebsiteMini-Desktop" stroke="none" stroke-width="1" fill="none" fill-rule="evenodd">
        <g id="Shift-HigherEd-WebsiteMini-Desktop-PAGE1" transform="translate(-1264.000000, -406.000000)" fill="#C59E78">
            <g id="BODY">
                <g id="FORM" transform="translate(852.000000, 195.000000)">
                    <g id="Donate-Online-Copy" transform="translate(1.000000, 182.000000)">
                        <g id="Group" transform="translate(395.000000, 19.000000)">
                            <g id="ICON---Phone" transform="translate(16.000000, 10.000000)">
                                <g id="Group-8">
                                    <path d="M8.84208684,2.48181818 L5.15787632,2.48181818 C4.81255526,2.48181818 4.53156053,2.78223636 4.53156053,3.15151515 C4.53156053,3.52079394 4.81255526,3.82121212 5.15787632,3.82121212 L8.84208684,3.82121212 C9.18748158,3.82121212 9.46840263,3.52079394 9.46840263,3.15151515 C9.46840263,2.78223636 9.18748158,2.48181818 8.84208684,2.48181818" id="Fill-1"></path>
                                    <path d="M2.94735,1.57575758 L11.0526132,1.57575758 C11.8652395,1.57575758 12.5262974,2.28264242 12.5262974,3.15151515 L12.5262974,4.72727273 L1.47366579,4.72727273 L1.47366579,3.15151515 C1.47366579,2.28264242 2.13479737,1.57575758 2.94735,1.57575758 L2.94735,1.57575758 Z M1.47366579,19.3030303 L12.5262974,19.3030303 L12.5262974,6.3030303 L1.47366579,6.3030303 L1.47366579,19.3030303 Z M11.0526132,24.4242424 L2.94735,24.4242424 C2.13479737,24.4242424 1.47366579,23.7173576 1.47366579,22.8484848 L1.47366579,20.8787879 L12.5262974,20.8787879 L12.5262974,22.8484848 C12.5262974,23.7173576 11.8652395,24.4242424 11.0526132,24.4242424 L11.0526132,24.4242424 Z M11.0526132,0 L2.94735,0 C1.32220789,0 -1.84210526e-05,1.4137697 -1.84210526e-05,3.15151515 L-1.84210526e-05,22.8484848 C-1.84210526e-05,24.5862303 1.32220789,26 2.94735,26 L11.0526132,26 C12.6778289,26 13.9999816,24.5862303 13.9999816,22.8484848 L13.9999816,3.15151515 C13.9999816,1.4137697 12.6778289,0 11.0526132,0 L11.0526132,0 Z" id="Fill-3"></path>
                                    <path d="M6.99998158,22.9701294 C6.83570263,22.9701294 6.70200263,22.8272082 6.70200263,22.6515112 C6.70200263,22.4758142 6.83570263,22.332893 6.99998158,22.332893 C7.16433421,22.332893 7.29796053,22.4758142 7.29796053,22.6515112 C7.29796053,22.8272082 7.16433421,22.9701294 6.99998158,22.9701294 M6.99998158,21.2599991 C6.28240789,21.2599991 5.69864474,21.8842355 5.69864474,22.6515112 C5.69864474,23.4188264 6.28240789,24.0430233 6.99998158,24.0430233 C7.71762895,24.0430233 8.30139211,23.4188264 8.30139211,22.6515112 C8.30139211,21.8842355 7.71762895,21.2599991 6.99998158,21.2599991" id="Fill-6"></path>
                                </g>
                            </g>
                        </g>
                    </g>
                </g>
            </g>
        </g>
    </g>
</svg>
