<?xml version="1.0" encoding="UTF-8"?>
<svg width="257px" height="201px" viewBox="0 0 257 201" version="1.1" xmlns="http://www.w3.org/2000/svg" xmlns:xlink="http://www.w3.org/1999/xlink">
    <!-- Generator: Sketch 62 (91390) - https://sketch.com -->
    <title>LOGO - TruckMonthGMC</title>
    <desc>Created with Sketch.</desc>
    <g id="TruckMonth-chevrolet-Website-Desktop" stroke="none" stroke-width="1" fill="none" fill-rule="evenodd">
        <g id="TruckMonth-chevrolet-Website-Desktop-LogIn" transform="translate(-784.000000, 0.000000)">
            <g id="LOGO---TruckMonthGMC" transform="translate(784.000000, 0.000000)">
                <g id="LOGO---TruckMonth">
                    <polygon id="Fill-1" fill="#B18840" points="0 170.951447 127.695354 201 257 170.951447 257 160 127.695354 190.048159 0 160"></polygon>
                    <polygon id="Fill-2" fill="#000000" points="0 0 0 159.86604 127.695354 190 257 159.86604 257 0"></polygon>
                    <polygon id="Fill-3" fill="#9C9EA1" points="35.5981147 59.9093045 40.0355815 59.9093045 40.0355815 35.6366759 35.3212958 35.6366759 35.3212958 41.1454381 27 41.1454381 27 28 63 28 63 41.1454381 54.6795008 41.1454381 54.6795008 35.6366759 49.9652151 35.6366759 49.9652151 59.9093045 54.4026819 59.9093045 54.4026819 67 35.5981147 67"></polygon>
                    <g id="Group-66" transform="translate(0.000000, 26.000000)">
                        <path d="M85.4289017,19.5421154 C88.4923168,19.5421154 90.4071967,17.9983937 90.4071967,14.4140611 C90.4071967,12.5947738 89.9696221,10.8851584 88.2735295,10.0580656 C87.3979875,9.61700226 86.1402551,9.39647059 84.4991539,9.39647059 L80.9981642,9.39647059 L80.9981642,19.5421154 L85.4289017,19.5421154 Z M66.8296238,33.9336878 L71.2061556,33.9336878 L71.2061556,8.84494344 L66.8296238,8.84494344 L66.8296238,1.67707014 L84.4991539,1.67707014 C87.4533717,1.67707014 90.0788194,1.78753394 92.3220767,2.44912896 C97.0258074,3.88278281 100.144214,7.74228507 100.144214,13.5319344 C100.144214,18.7150226 97.6821693,22.2439253 93.7989892,24.3391742 L93.7989892,24.449638 C93.7989892,24.449638 95.3305003,25.111233 96.2056496,26.8204525 L99.2140732,32.6655317 C99.7066393,33.6026923 100.472591,33.9336878 101.731109,33.9336878 L103.098039,33.9336878 L103.098039,41.1015611 L96.6432242,41.1015611 C93.4706118,41.1015611 92.2120938,40.3295023 91.1177645,38.1792195 L86.3590424,28.9707353 C85.7026804,27.7025792 84.9913271,27.2619118 82.9676427,27.2619118 L80.9981642,27.2619118 L80.9981642,33.9336878 L85.1013099,33.9336878 L85.1013099,41.1015611 L66.8296238,41.1015611 L66.8296238,33.9336878 Z" id="Fill-4" fill="#9C9EA1"></path>
                        <path d="M109.99306,8.84510181 L105.616921,8.84510181 L105.616921,1.67722851 L124.1616,1.67722851 L124.1616,8.84510181 L119.785461,8.84510181 L119.785461,26.048552 C119.785461,27.8132014 120.168437,29.3569231 120.770201,30.4045475 C121.809146,32.1691968 123.942813,33.2168213 126.622859,33.2168213 C129.139895,33.2168213 131.109374,32.3342986 132.311722,30.4595814 C133.023468,29.3018891 133.351846,27.8682353 133.351846,26.048552 L133.351846,8.84510181 L128.975314,8.84510181 L128.975314,1.67722851 L147.519993,1.67722851 L147.519993,8.84510181 L143.143854,8.84510181 L143.143854,26.048552 C143.143854,29.9634842 141.939542,33.7679525 139.91625,36.3042647 C136.907041,40.054095 131.710352,41.7633145 126.568261,41.7633145 C120.988988,41.7633145 116.11989,39.7781335 113.275262,36.4697624 C110.978585,33.8229864 109.99306,30.1840158 109.99306,26.048552 L109.99306,8.84510181 Z" id="Fill-6" fill="#9C9EA1"></path>
                        <path d="M171.317139,1.01547511 C176.075861,1.01547511 187.126388,2.55919683 187.126388,8.9003733 L187.126388,15.131086 L178.37411,15.131086 L178.37411,12.0982805 C178.37411,9.89256787 174.380554,9.28640271 171.754321,9.28640271 C165.409096,9.28640271 160.977966,13.4214706 160.977966,20.7552376 C160.977966,28.9157014 165.791679,33.4922285 172.301878,33.4922285 C174.052177,33.4922285 178.811684,33.0511652 178.811684,30.6803507 L178.811684,27.6475452 L187.563962,27.6475452 L187.563962,33.9887217 C187.563962,39.9989027 177.006002,41.7631561 171.590918,41.7631561 C159.61025,41.7631561 150.857973,32.8306335 150.857973,21.3067647 C150.857973,9.50693439 159.884029,1.01547511 171.317139,1.01547511" id="Fill-8" fill="#9C9EA1"></path>
                        <path d="M192.598349,33.933569 L196.97488,33.933569 L196.97488,8.84522059 L192.598349,8.84522059 L192.598349,1.67695136 L209.610731,1.67695136 L209.610731,8.84522059 L206.766103,8.84522059 L206.766103,17.1711821 L210.048306,17.1711821 L215.792553,8.84522059 L212.837549,8.84522059 L212.837549,1.67695136 L228.921362,1.67695136 L228.921362,8.84522059 L225.638767,8.84522059 L217.324064,20.1489536 L217.324064,20.2590215 C217.324064,20.2590215 218.964379,21.0310803 220.332095,23.7879242 L224.764011,32.6654129 C225.201192,33.5475396 225.912153,33.933569 227.170671,33.933569 L228.865978,33.933569 L228.865978,41.1014423 L222.192376,41.1014423 C218.910174,41.1014423 217.651656,40.1642817 216.667702,38.1791007 L210.814258,26.1587387 C210.322084,25.1661482 209.55574,24.8905826 208.078827,24.8905826 L206.766103,24.8905826 L206.766103,33.933569 L210.868463,33.933569 L210.868463,41.1014423 L192.598349,41.1014423 L192.598349,33.933569 Z" id="Fill-10" fill="#9C9EA1"></path>
                        <path d="M27.8672575,78.2466968 L31.6467395,78.2466968 L33.4881666,56.026052 L29.6120568,56.026052 L29.6120568,49.6773529 L43.2267549,49.6773529 L49.0405268,66.9655317 C49.7668063,69.1146267 50.0091614,70.5795588 50.0091614,70.5795588 L50.106182,70.5795588 C50.106182,70.5795588 50.348537,69.1146267 51.0752094,66.9655317 L56.8893741,49.6773529 L70.5040722,49.6773529 L70.5040722,56.026052 L66.6279624,56.026052 L68.4686039,78.2466968 L72.2480859,78.2466968 L72.2480859,84.5957919 L56.5499985,84.5957919 L56.5499985,78.2466968 L59.9901048,78.2466968 L59.1664118,65.6957919 C59.0693913,64.2308597 59.3600602,61.7891742 59.3600602,61.7891742 L59.1664118,61.7891742 C59.1664118,61.7891742 58.7787223,64.0352715 58.2460911,65.5005995 L53.6916228,78.2466968 L46.4237206,78.2466968 L41.8696451,65.5005995 C41.3370139,64.0352715 40.9489316,61.7891742 40.9489316,61.7891742 L40.7552832,61.7891742 C40.7552832,61.7891742 41.0459521,64.2308597 40.9489316,65.6957919 L40.1252386,78.2466968 L43.5653449,78.2466968 L43.5653449,84.5957919 L27.8672575,84.5957919 L27.8672575,78.2466968 Z" id="Fill-12" fill="#9C9EA1"></path>
                        <path d="M93.5644901,77.6118269 C98.6515895,77.6118269 102.818761,73.0210464 102.818761,66.9166346 C102.818761,61.0565102 98.6515895,56.6609219 93.5644901,56.6609219 C88.476605,56.6609219 84.3106118,61.0565102 84.3106118,66.9166346 C84.3106118,73.0210464 88.476605,77.6118269 93.5644901,77.6118269 M93.5644901,49.0915781 C104.126379,49.0915781 111.781578,56.9056052 111.781578,66.9166346 C111.781578,77.1727432 104.126379,85.1819627 93.5644901,85.1819627 C83.0022087,85.1819627 75.346617,77.1727432 75.346617,66.9166346 C75.346617,56.9056052 83.0022087,49.0915781 93.5644901,49.0915781" id="Fill-14" fill="#9C9EA1"></path>
                        <path d="M115.80039,78.2466968 L119.6765,78.2466968 L119.6765,56.026052 L115.80039,56.026052 L115.80039,49.6773529 L128.446061,49.6773529 L139.299404,68.1865724 C140.122311,69.6028054 140.752356,71.7515045 140.752356,71.7515045 L140.946004,71.7515045 C140.946004,71.7515045 140.655335,69.4076131 140.655335,67.8448869 L140.655335,56.026052 L136.58597,56.026052 L136.58597,49.6773529 L153.203985,49.6773529 L153.203985,56.026052 L149.327875,56.026052 L149.327875,84.5957919 L140.607021,84.5957919 L129.70615,66.1843665 C128.882064,64.7681335 128.252412,62.6190385 128.252412,62.6190385 L128.058371,62.6190385 C128.058371,62.6190385 128.34904,64.9637217 128.34904,66.526052 L128.34904,78.2466968 L132.419191,78.2466968 L132.419191,84.5957919 L115.80039,84.5957919 L115.80039,78.2466968 Z" id="Fill-16" fill="#9C9EA1"></path>
                        <polygon id="Fill-18" fill="#9C9EA1" points="163.66685 78.2466968 167.54296 78.2466968 167.54296 56.5146267 163.424495 56.5146267 163.424495 61.4470928 156.157378 61.4470928 156.157378 49.6773529 187.601867 49.6773529 187.601867 61.4470928 180.333965 61.4470928 180.333965 56.5146267 176.215107 56.5146267 176.215107 78.2466968 180.091217 78.2466968 180.091217 84.5957919 163.66685 84.5957919"></polygon>
                        <polygon id="Fill-20" fill="#9C9EA1" points="191.087381 78.2466968 194.96349 78.2466968 194.96349 56.026052 191.087381 56.026052 191.087381 49.6773529 207.511748 49.6773529 207.511748 56.026052 203.635638 56.026052 203.635638 63.8400792 216.038954 63.8400792 216.038954 56.026052 212.162844 56.026052 212.162844 49.6773529 228.587996 49.6773529 228.587996 56.026052 224.711887 56.026052 224.711887 78.2466968 228.587996 78.2466968 228.587996 84.5957919 212.162844 84.5957919 212.162844 78.2466968 216.038954 78.2466968 216.038954 70.6773529 203.635638 70.6773529 203.635638 78.2466968 207.511748 78.2466968 207.511748 84.5957919 191.087381 84.5957919"></polygon>
                        <polygon id="Fill-22" fill="#FEFEFE" points="35.8672134 33.1417138 40.2433523 33.1417138 40.2433523 8.60489253 35.5942202 8.60489253 35.5942202 14.1736143 27.3879286 14.1736143 27.3879286 0.885096154 62.8903918 0.885096154 62.8903918 14.1736143 54.6848858 14.1736143 54.6848858 8.60489253 50.0357537 8.60489253 50.0357537 33.1417138 54.4118926 33.1417138 54.4118926 40.3095871 35.8672134 40.3095871"></polygon>
                        <path d="M85.4289017,18.7502602 C88.4923168,18.7502602 90.4071967,17.2065385 90.4071967,13.6222059 C90.4071967,11.8029186 89.9696221,10.0933032 88.2735295,9.26621041 C87.3979875,8.82514706 86.1402551,8.60461538 84.4991539,8.60461538 L80.9981642,8.60461538 L80.9981642,18.7502602 L85.4289017,18.7502602 Z M66.8296238,33.1418326 L71.2061556,33.1418326 L71.2061556,8.05308824 L66.8296238,8.05308824 L66.8296238,0.885214932 L84.4991539,0.885214932 C87.4533717,0.885214932 90.0788194,0.995678733 92.3220767,1.65727376 C97.0258074,3.0909276 100.144214,6.95042986 100.144214,12.7400792 C100.144214,17.9231674 97.6821693,21.4520701 93.7989892,23.547319 L93.7989892,23.6577828 C93.7989892,23.6577828 95.3305003,24.3193778 96.2056496,26.0285973 L99.2140732,31.8736765 C99.7066393,32.8108371 100.472591,33.1418326 101.731109,33.1418326 L103.098039,33.1418326 L103.098039,40.3097059 L96.6432242,40.3097059 C93.4706118,40.3097059 92.2120938,39.5376471 91.1177645,37.3873643 L86.3590424,28.1788801 C85.7026804,26.910724 84.9913271,26.4700566 82.9676427,26.4700566 L80.9981642,26.4700566 L80.9981642,33.1418326 L85.1013099,33.1418326 L85.1013099,40.3097059 L66.8296238,40.3097059 L66.8296238,33.1418326 Z" id="Fill-24" fill="#FEFEFE"></path>
                        <path d="M109.99306,8.05324661 L105.616921,8.05324661 L105.616921,0.885373303 L124.1616,0.885373303 L124.1616,8.05324661 L119.785461,8.05324661 L119.785461,25.2566968 C119.785461,27.0213462 120.168437,28.5650679 120.770201,29.6126923 C121.809146,31.3773416 123.942813,32.4249661 126.622859,32.4249661 C129.139895,32.4249661 131.109374,31.5424434 132.311722,29.6677262 C133.023468,28.5100339 133.351846,27.0763801 133.351846,25.2566968 L133.351846,8.05324661 L128.975314,8.05324661 L128.975314,0.885373303 L147.519993,0.885373303 L147.519993,8.05324661 L143.143854,8.05324661 L143.143854,25.2566968 C143.143854,29.171629 141.939542,32.9760973 139.91625,35.5124095 C136.907041,39.2622398 131.710352,40.9714593 126.568261,40.9714593 C120.988988,40.9714593 116.11989,38.9862783 113.275262,35.6779072 C110.978585,33.0311312 109.99306,29.3921606 109.99306,25.2566968 L109.99306,8.05324661 Z" id="Fill-26" fill="#FEFEFE"></path>
                        <path d="M171.317139,0.22361991 C176.075861,0.22361991 187.126388,1.76734163 187.126388,8.1085181 L187.126388,14.3392308 L178.37411,14.3392308 L178.37411,11.3064253 C178.37411,9.10071267 174.380554,8.49454751 171.754321,8.49454751 C165.409096,8.49454751 160.977966,12.6296154 160.977966,19.9633824 C160.977966,28.1238462 165.791679,32.7003733 172.301878,32.7003733 C174.052177,32.7003733 178.811684,32.25931 178.811684,29.8884955 L178.811684,26.85569 L187.563962,26.85569 L187.563962,33.1968665 C187.563962,39.2070475 177.006002,40.9713009 171.590918,40.9713009 C159.61025,40.9713009 150.857973,32.0387783 150.857973,20.5149095 C150.857973,8.71507919 159.884029,0.22361991 171.317139,0.22361991" id="Fill-28" fill="#FEFEFE"></path>
                        <path d="M192.598349,33.1417138 L196.97488,33.1417138 L196.97488,8.05336538 L192.598349,8.05336538 L192.598349,0.885096154 L209.610731,0.885096154 L209.610731,8.05336538 L206.766103,8.05336538 L206.766103,16.3793269 L210.048306,16.3793269 L215.792553,8.05336538 L212.837549,8.05336538 L212.837549,0.885096154 L228.921362,0.885096154 L228.921362,8.05336538 L225.638767,8.05336538 L217.324064,19.3570984 L217.324064,19.4671663 C217.324064,19.4671663 218.964379,20.2392251 220.332095,22.996069 L224.764011,31.8735577 C225.201192,32.7556844 225.912153,33.1417138 227.170671,33.1417138 L228.865978,33.1417138 L228.865978,40.3095871 L222.192376,40.3095871 C218.910174,40.3095871 217.651656,39.3724265 216.667702,37.3872455 L210.814258,25.3668835 C210.322084,24.374293 209.55574,24.0987274 208.078827,24.0987274 L206.766103,24.0987274 L206.766103,33.1417138 L210.868463,33.1417138 L210.868463,40.3095871 L192.598349,40.3095871 L192.598349,33.1417138 Z" id="Fill-30" fill="#FEFEFE"></path>
                        <path d="M27.8672575,77.4548416 L31.6467395,77.4548416 L33.4881666,55.2341968 L29.6120568,55.2341968 L29.6120568,48.8854977 L43.2267549,48.8854977 L49.0405268,66.1736765 C49.7668063,68.3227715 50.0091614,69.7877036 50.0091614,69.7877036 L50.106182,69.7877036 C50.106182,69.7877036 50.348537,68.3227715 51.0752094,66.1736765 L56.8893741,48.8854977 L70.5040722,48.8854977 L70.5040722,55.2341968 L66.6279624,55.2341968 L68.4686039,77.4548416 L72.2480859,77.4548416 L72.2480859,83.8039367 L56.5499985,83.8039367 L56.5499985,77.4548416 L59.9901048,77.4548416 L59.1664118,64.9039367 C59.0693913,63.4390045 59.3600602,60.997319 59.3600602,60.997319 L59.1664118,60.997319 C59.1664118,60.997319 58.7787223,63.2434163 58.2460911,64.7087443 L53.6916228,77.4548416 L46.4237206,77.4548416 L41.8696451,64.7087443 C41.3370139,63.2434163 40.9489316,60.997319 40.9489316,60.997319 L40.7552832,60.997319 C40.7552832,60.997319 41.0459521,63.4390045 40.9489316,64.9039367 L40.1252386,77.4548416 L43.5653449,77.4548416 L43.5653449,83.8039367 L27.8672575,83.8039367 L27.8672575,77.4548416 Z" id="Fill-32" fill="#FEFEFE"></path>
                        <path d="M93.5644901,76.8199717 C98.6515895,76.8199717 102.818761,72.2291912 102.818761,66.1247794 C102.818761,60.264655 98.6515895,55.8690667 93.5644901,55.8690667 C88.476605,55.8690667 84.3106118,60.264655 84.3106118,66.1247794 C84.3106118,72.2291912 88.476605,76.8199717 93.5644901,76.8199717 M93.5644901,48.2997229 C104.126379,48.2997229 111.781578,56.11375 111.781578,66.1247794 C111.781578,76.380888 104.126379,84.3901075 93.5644901,84.3901075 C83.0022087,84.3901075 75.346617,76.380888 75.346617,66.1247794 C75.346617,56.11375 83.0022087,48.2997229 93.5644901,48.2997229" id="Fill-34" fill="#FEFEFE"></path>
                        <path d="M115.80039,77.4548416 L119.6765,77.4548416 L119.6765,55.2341968 L115.80039,55.2341968 L115.80039,48.8854977 L128.446061,48.8854977 L139.299404,67.3947172 C140.122311,68.8109502 140.752356,70.9596493 140.752356,70.9596493 L140.946004,70.9596493 C140.946004,70.9596493 140.655335,68.6157579 140.655335,67.0530317 L140.655335,55.2341968 L136.58597,55.2341968 L136.58597,48.8854977 L153.203985,48.8854977 L153.203985,55.2341968 L149.327875,55.2341968 L149.327875,83.8039367 L140.607021,83.8039367 L129.70615,65.3925113 C128.882064,63.9762783 128.252412,61.8271833 128.252412,61.8271833 L128.058371,61.8271833 C128.058371,61.8271833 128.34904,64.1718665 128.34904,65.7341968 L128.34904,77.4548416 L132.419191,77.4548416 L132.419191,83.8039367 L115.80039,83.8039367 L115.80039,77.4548416 Z" id="Fill-36" fill="#FEFEFE"></path>
                        <polygon id="Fill-38" fill="#FEFEFE" points="163.66685 77.4548416 167.54296 77.4548416 167.54296 55.7227715 163.424495 55.7227715 163.424495 60.6552376 156.157378 60.6552376 156.157378 48.8854977 187.601867 48.8854977 187.601867 60.6552376 180.333965 60.6552376 180.333965 55.7227715 176.215107 55.7227715 176.215107 77.4548416 180.091217 77.4548416 180.091217 83.8039367 163.66685 83.8039367"></polygon>
                        <polygon id="Fill-40" fill="#FEFEFE" points="191.087381 77.4548416 194.96349 77.4548416 194.96349 55.2341968 191.087381 55.2341968 191.087381 48.8854977 207.511748 48.8854977 207.511748 55.2341968 203.635638 55.2341968 203.635638 63.048224 216.038954 63.048224 216.038954 55.2341968 212.162844 55.2341968 212.162844 48.8854977 228.587996 48.8854977 228.587996 55.2341968 224.711887 55.2341968 224.711887 77.4548416 228.587996 77.4548416 228.587996 83.8039367 212.162844 83.8039367 212.162844 77.4548416 216.038954 77.4548416 216.038954 69.8854977 203.635638 69.8854977 203.635638 77.4548416 207.511748 77.4548416 207.511748 83.8039367 191.087381 83.8039367"></polygon>
                        <path d="M38.9077285,116.503993 L38.9077285,97.955181 L43.6801985,97.955181 L43.6801985,116.178145 C43.6801985,118.66457 44.2462173,119.520962 46.0668262,119.520962 C47.8057336,119.520962 48.4927336,118.66457 48.4927336,116.218529 L48.4927336,97.955181 L53.2247456,97.955181 L53.2247456,116.463213 C53.2247456,120.947885 51.6885209,123.638213 46.0668262,123.638213 C40.5252619,123.638213 38.9077285,120.988269 38.9077285,116.503993" id="Fill-42" fill="#B18840"></path>
                        <path d="M62.9323424,109.899644 C65.2777266,109.899644 65.5609324,109.206374 65.5609324,106.923852 L65.5609324,104.966782 C65.5609324,102.887766 65.2777266,101.949813 62.8914916,101.949813 L61.1521914,101.949813 L61.1521914,109.899644 L62.9323424,109.899644 Z M56.3801142,97.9552998 L62.8109684,97.9552998 C67.6235036,97.9552998 70.3334024,99.0551867 70.3334024,105.048739 L70.3334024,106.760334 C70.3334024,112.75349 67.5830456,113.853773 62.8109684,113.853773 L61.1521914,113.853773 L61.1521914,123.475209 L56.3801142,123.475209 L56.3801142,97.9552998 Z" id="Fill-44" fill="#B18840"></path>
                        <path d="M72.4359602,116.01526 L72.4359602,105.211584 C72.4359602,99.9524774 74.822588,97.750724 79.7160391,97.750724 C85.5396309,97.750724 86.591931,100.849649 86.9152021,105.130023 L82.0618161,105.66017 C81.9404422,102.602421 81.6572364,101.991109 79.5946652,101.991109 C77.7343839,101.991109 77.249281,103.132172 77.249281,105.170011 L77.249281,116.218767 C77.249281,118.460509 77.6939259,119.479627 79.9179362,119.479627 C82.264106,119.479627 82.4259379,118.460509 82.4663959,113.853891 L82.4663959,113.120238 L79.9179362,113.120238 L79.9179362,109.165713 L86.8338933,109.165713 L86.8338933,123.475328 L83.1942467,123.475328 L82.9110408,122.252308 C81.9404422,123.149084 80.6461798,123.597274 78.8668144,123.597274 C74.7012141,123.597274 72.4359602,121.35474 72.4359602,116.01526" id="Fill-46" fill="#B18840"></path>
                        <path d="M96.3800117,109.614299 C98.7253959,109.614299 98.9681437,108.921029 98.9681437,106.638507 L98.9681437,104.9669 C98.9681437,102.887885 98.7253959,101.949932 96.3395537,101.949932 L94.7212346,101.949932 L94.7212346,109.614299 L96.3800117,109.614299 Z M89.9491575,97.9554186 L96.2586377,97.9554186 C101.030715,97.9554186 103.700549,99.0553054 103.700549,105.048857 L103.700549,106.55655 C103.700549,110.18483 102.648248,111.937602 100.747902,112.753609 L103.579175,123.475328 L98.6853307,123.475328 L96.0154971,113.405305 L94.7212346,113.405305 L94.7212346,123.475328 L89.9491575,123.475328 L89.9491575,97.9554186 Z" id="Fill-48" fill="#B18840"></path>
                        <path d="M114.256859,115.117851 L113.407242,109.288213 L112.841223,105.292907 L112.234746,109.288213 L111.30382,115.117851 L114.256859,115.117851 Z M110.131324,97.873224 L115.429355,97.873224 L120.201825,123.47509 L115.469813,123.47509 L114.620588,118.827692 L110.900026,118.827692 L110.050801,123.47509 L105.399312,123.47509 L110.131324,97.873224 Z" id="Fill-50" fill="#B18840"></path>
                        <path d="M129.585287,119.439044 C131.729167,119.439044 132.173811,118.379146 132.173811,116.218569 L132.173811,105.129825 C132.173811,103.377053 131.849755,102.072472 129.544436,102.072472 L127.239117,102.072472 L127.239117,119.439044 L129.585287,119.439044 Z M122.466647,97.9552206 L129.544436,97.9552206 C135.408878,97.9552206 136.945889,100.849847 136.945889,105.04866 L136.945889,116.096227 C136.945889,120.417777 135.166131,123.47513 129.585287,123.47513 L122.466647,123.47513 L122.466647,97.9552206 Z" id="Fill-52" fill="#B18840"></path>
                        <polygon id="Fill-54" fill="#B18840" points="139.89885 97.9552998 151.789567 97.9552998 151.789567 102.194893 144.670927 102.194893 144.670927 107.575945 150.57622 107.575945 150.57622 111.57125 144.670927 111.57125 144.670927 119.276397 151.789567 119.276397 151.789567 123.475209 139.89885 123.475209"></polygon>
                        <path d="M158.705484,115.973886 L163.55887,115.362574 C163.680637,118.950469 164.165347,119.439044 166.187853,119.439044 C168.129443,119.439044 168.53363,118.460311 168.53363,117.074564 C168.53363,115.322189 167.320284,114.465402 164.327572,112.019757 C161.213486,109.573716 159.069999,107.698207 159.069999,104.233049 C159.069999,99.6672115 161.739047,97.7509219 165.945105,97.7509219 C171.041239,97.7509219 172.578249,99.8711143 173.063352,104.35539 L168.290882,104.80358 C168.169901,102.72496 167.684405,101.991307 166.066086,101.991307 C164.327572,101.991307 163.842076,102.887687 163.842076,104.070322 C163.842076,105.53763 164.813068,106.312064 167.441658,108.431861 C170.879407,111.244926 173.346165,113.079259 173.346165,117.074564 C173.346165,121.192212 171.404968,123.637856 166.026021,123.637856 C160.161579,123.637856 158.867316,120.540119 158.705484,115.973886" id="Fill-56" fill="#B18840"></path>
                        <path d="M183.417098,115.117851 L182.567874,109.288213 L182.001462,105.292907 L181.394985,109.288213 L180.464059,115.117851 L183.417098,115.117851 Z M179.291563,97.873224 L184.589594,97.873224 L189.362457,123.47509 L184.630052,123.47509 L183.780827,118.827692 L180.060265,118.827692 L179.21104,123.47509 L174.559551,123.47509 L179.291563,97.873224 Z" id="Fill-58" fill="#B18840"></path>
                        <polygon id="Fill-60" fill="#B18840" points="191.627082 97.9552998 196.399552 97.9552998 196.399552 119.276397 203.032303 119.276397 203.032303 123.475209 191.627082 123.475209"></polygon>
                        <polygon id="Fill-62" fill="#B18840" points="205.581313 97.9552998 217.471637 97.9552998 217.471637 102.194893 210.35339 102.194893 210.35339 107.575945 216.258291 107.575945 216.258291 111.57125 210.35339 111.57125 210.35339 119.276397 217.471637 119.276397 217.471637 123.475209 205.581313 123.475209"></polygon>
                        <polygon id="Fill-64" fill="#957334" points="3.92795883e-05 133.835882 3.92795883e-05 144.831188 127.256871 174.97474 127.256871 163.979038"></polygon>
                    </g>
                </g>
            </g>
        </g>
    </g>
</svg>