<?xml version="1.0" encoding="UTF-8"?>
<svg width="96px" height="28px" viewBox="0 0 96 28" version="1.1" xmlns="http://www.w3.org/2000/svg" xmlns:xlink="http://www.w3.org/1999/xlink">
    <!-- Generator: Sketch 63.1 (92452) - https://sketch.com -->
    <title>LOGO - ShiftUniversity GREY</title>
    <desc>Created with Sketch.</desc>
    <defs>
        <polygon id="path-1" points="0.0005 0.644 27.7555 0.644 27.7555 5.3538 0.0005 5.3538"></polygon>
    </defs>
    <g id="LOGO---ShiftUniversity-GREY" stroke="none" stroke-width="1" fill="none" fill-rule="evenodd">
        <g id="Group-41">
            <path d="M20.235,16.0396 C20.199,16.9816 19.956,18.2806 18.612,20.4426 C18.172,21.1486 17.63,21.8316 17.056,22.4626 L17.056,10.5366 C17.056,9.6586 17.768,8.9466 18.646,8.9466 C19.525,8.9466 20.235,9.6586 20.235,10.5366 L20.235,16.0396 Z M15.467,24.0426 C14.871,24.5826 14.313,25.0386 13.878,25.3786 C13.443,25.0386 12.885,24.5826 12.289,24.0426 L12.289,10.5366 C12.289,9.6586 13.001,8.9466 13.878,8.9466 C14.756,8.9466 15.467,9.6586 15.467,10.5366 L15.467,24.0426 Z M10.699,22.4626 C10.127,21.8316 9.584,21.1486 9.144,20.4426 C7.8,18.2806 7.556,16.9806 7.521,16.0386 L7.521,10.5366 C7.521,9.6586 8.232,8.9466 9.11,8.9466 C9.987,8.9466 10.699,9.6586 10.699,10.5366 L10.699,22.4626 Z M21.825,15.1146 L21.825,7.3576 L5.931,7.3576 L5.931,15.1146 C5.931,16.2646 5.72,17.9456 7.795,21.2826 C9.869,24.6176 13.878,27.3556 13.878,27.3556 C13.878,27.3556 17.886,24.6176 19.962,21.2826 C22.036,17.9456 21.825,16.2646 21.825,15.1146 L21.825,15.1146 Z" id="Fill-1" fill="#C59E78"></path>
            <path d="M25.4015,1 L2.3555,1 C1.0545,1 0.0005,2.054 0.0005,3.355 C0.0005,4.656 1.0545,5.71 2.3555,5.71 C3.6465,5.71 4.6935,4.671 4.7095,3.384 L23.0465,3.384 C23.0615,4.671 24.1105,5.71 25.4015,5.71 C26.7015,5.71 27.7555,4.656 27.7555,3.355 C27.7555,2.054 26.7015,1 25.4015,1" id="Fill-5" fill="#C59E78"></path>
            <path d="M22.6197,5.3707 C22.6197,6.0287 22.0857,6.5627 21.4267,6.5627 L6.3277,6.5627 C5.6697,6.5627 5.1367,6.0287 5.1367,5.3707 C5.1367,4.7127 5.6697,4.1787 6.3277,4.1787 L21.4267,4.1787 C22.0857,4.1787 22.6197,4.7127 22.6197,5.3707" id="Fill-3" fill="#C59E78"></path>
            <g id="Group-7" transform="translate(0.000000, 0.356200)">
                <mask id="mask-2" fill="white">
                    <use xlink:href="#path-1"></use>
                </mask>
                <g id="Clip-6"></g>
            </g>
            <path d="M37.5909,6.5191 C37.1849,4.9021 36.2729,4.2221 35.1569,4.2221 C34.0579,4.2221 33.4159,4.9021 33.4159,5.7931 C33.4159,6.8971 34.5819,7.3351 35.7819,7.8191 C37.3879,8.4241 38.8409,9.0131 38.8409,10.9031 C38.8409,12.3991 37.8279,13.9561 34.7169,13.9561 C33.6349,13.9561 32.1819,13.7591 31.3869,13.1241 L31.1839,10.5851 L31.7589,10.5851 C32.3339,12.3381 33.4159,13.3361 34.7169,13.3361 C35.8499,13.3361 36.6109,12.7911 36.6109,11.6881 C36.6109,10.7361 35.8329,10.1771 34.4469,9.6631 C32.6379,8.9831 31.3019,8.3181 31.3019,6.5491 C31.3019,4.7811 32.6209,3.5871 35.1909,3.5871 C36.1879,3.5871 37.3879,3.7981 38.1659,4.2221 L38.1659,6.5191 L37.5909,6.5191 Z" id="Fill-8" fill="#C59E78"></path>
            <path d="M47.9015,8.8018 L47.9015,12.3228 C47.9015,13.0638 48.0035,13.1248 49.2035,13.1848 L49.2035,13.7138 L44.1825,13.7138 L44.1825,13.1848 C45.3835,13.1248 45.4855,13.0638 45.4855,12.3228 L45.4855,5.2198 C45.4855,4.4788 45.3835,4.4028 44.1825,4.3578 L44.1825,3.8438 L49.2035,3.8438 L49.2035,4.3578 C48.0035,4.4028 47.9015,4.4788 47.9015,5.2198 L47.9015,8.1518 L52.2625,8.1518 L52.2625,5.2198 C52.2625,4.4788 52.1625,4.4028 50.9615,4.3578 L50.9615,3.8438 L55.9815,3.8438 L55.9815,4.3578 C54.7815,4.4028 54.6795,4.4638 54.6795,5.2198 L54.6795,12.3228 C54.6795,13.0788 54.7815,13.1248 55.9815,13.1848 L55.9815,13.7138 L50.9615,13.7138 L50.9615,13.1848 C52.1625,13.1248 52.2625,13.0788 52.2625,12.3228 L52.2625,8.8018 L47.9015,8.8018 Z" id="Fill-10" fill="#C59E78"></path>
            <path d="M64.9757,12.3233 C64.9757,13.0643 65.0767,13.1243 66.2777,13.1853 L66.2777,13.7143 L61.2747,13.7143 L61.2747,13.1853 C62.4567,13.1243 62.5757,13.0643 62.5757,12.3233 L62.5757,5.2193 C62.5757,4.4793 62.4737,4.4033 61.2747,4.3583 L61.2747,3.8443 L66.2777,3.8443 L66.2777,4.3583 C65.0767,4.4033 64.9757,4.4633 64.9757,5.2193 L64.9757,12.3233 Z" id="Fill-12" fill="#C59E78"></path>
            <path d="M79.9522,3.8438 L79.9522,6.4278 L79.3602,6.4278 C78.9212,5.0228 78.6342,4.4638 76.9262,4.4638 L75.8272,4.4638 C75.3712,4.4638 75.2692,4.5538 75.2692,4.9778 L75.2692,8.4538 L77.0952,8.4538 C78.1772,8.4538 78.3632,8.1518 78.5832,7.1388 L79.1742,7.1388 L79.1742,10.4638 L78.5832,10.4638 C78.3632,9.4518 78.1772,9.1348 77.0952,9.1348 L75.2692,9.1348 L75.2692,12.3228 C75.2692,13.0788 75.3712,13.1398 76.8242,13.1848 L76.8242,13.7138 L71.5682,13.7138 L71.5682,13.1848 C72.7672,13.1398 72.8692,13.0788 72.8692,12.3228 L72.8692,5.2198 C72.8692,4.4638 72.7672,4.4028 71.5682,4.3578 L71.5682,3.8438 L79.9522,3.8438 Z" id="Fill-14" fill="#C59E78"></path>
            <path d="M91.0577,12.3536 C91.0577,12.8976 91.1427,13.0946 91.7677,13.1396 L92.6467,13.2006 L92.6467,13.7136 L87.0697,13.7136 L87.0697,13.2006 L87.9647,13.1396 C88.5557,13.0946 88.6577,12.8976 88.6577,12.3536 L88.6577,4.4636 L87.9477,4.4636 C86.3927,4.4636 86.1717,5.0076 85.6997,6.4886 L85.1087,6.4886 L85.1087,3.8436 L94.6077,3.8436 L94.6077,6.4886 L94.0157,6.4886 C93.5417,5.0076 93.3227,4.4636 91.7677,4.4636 L91.0577,4.4636 L91.0577,12.3536 Z" id="Fill-16" fill="#C59E78"></path>
            <path d="M35.4503,20.7613 L35.4503,20.9663 C34.9573,21.0013 34.9383,21.0143 34.9383,21.3323 L34.9383,23.2523 C34.9383,23.5833 34.8723,23.8913 34.7823,24.0893 C34.5163,24.6373 33.9033,24.7693 33.3253,24.7693 C32.7543,24.7693 32.1763,24.6303 31.9113,24.0953 C31.8083,23.9023 31.7493,23.5963 31.7493,23.2643 L31.7493,21.3323 C31.7493,21.0143 31.7373,21.0013 31.2313,20.9713 L31.2313,20.7613 L32.8743,20.7613 L32.8743,20.9713 C32.3923,21.0013 32.3743,21.0143 32.3743,21.3323 L32.3743,23.1253 C32.3743,23.7943 32.5313,24.5233 33.3373,24.5233 C34.1683,24.5233 34.3363,23.8423 34.3363,23.1253 L34.3363,21.3323 C34.3363,21.0143 34.3183,21.0013 33.8373,20.9713 L33.8373,20.7613 L35.4503,20.7613 Z" id="Fill-18" fill="#C59E78"></path>
            <path d="M42.1759,24.6724 C41.3819,23.5284 40.6239,22.4414 39.8229,21.3084 L39.8189,21.3084 L39.8189,23.4694 C39.8189,23.7874 39.8289,24.0174 39.8539,24.2034 C39.8899,24.4494 40.0699,24.4324 40.4309,24.4614 L40.4309,24.6724 L38.9929,24.6724 L38.9929,24.4614 C39.2879,24.4374 39.4379,24.4434 39.4749,24.1964 C39.4989,24.0104 39.5109,23.7874 39.5109,23.4694 L39.5109,21.3324 C39.5109,21.0144 39.4989,21.0014 39.0109,20.9714 L39.0109,20.7614 L40.1729,20.7614 C40.7689,21.6214 41.5569,22.7824 42.2899,23.8054 L42.2969,23.8184 L42.2969,21.9584 C42.2969,21.6404 42.2849,21.4174 42.2609,21.2304 C42.2249,20.9774 42.0079,20.9954 41.6709,20.9714 L41.6709,20.7614 L43.1149,20.7614 L43.1149,20.9714 C42.8209,20.9954 42.6759,20.9894 42.6399,21.2364 C42.6159,21.4224 42.6049,21.6334 42.6049,21.9584 L42.6049,24.6724 L42.1759,24.6724 Z" id="Fill-20" fill="#C59E78"></path>
            <path d="M47.9356,24.1001 C47.9356,24.4191 47.9536,24.4261 48.4466,24.4611 L48.4466,24.6721 L46.8096,24.6721 L46.8096,24.4611 C47.2966,24.4261 47.3156,24.4191 47.3156,24.1001 L47.3156,21.3321 C47.3156,21.0011 47.3026,21.0011 46.8096,20.9711 L46.8096,20.7611 L48.4466,20.7611 L48.4466,20.9711 C47.9536,21.0011 47.9356,21.0081 47.9356,21.3321 L47.9356,24.1001 Z" id="Fill-22" fill="#C59E78"></path>
            <path d="M53.4259,20.7613 L53.4259,20.9713 L53.1249,21.0013 C52.9919,21.0143 52.9809,21.0683 53.0349,21.1993 C53.3719,22.1573 53.7629,23.1383 54.0879,24.0283 L54.1059,24.0403 C54.4179,23.1563 54.7979,22.1093 55.1219,21.1053 C55.1419,21.0503 55.1419,21.0143 55.0149,21.0013 L54.6839,20.9713 L54.6839,20.7613 L55.9419,20.7613 L55.9419,20.9713 C55.6409,20.9903 55.5729,20.9773 55.4719,21.2303 C55.0319,22.3673 54.5759,23.5523 54.1599,24.6723 L53.6789,24.6723 C53.2629,23.5053 52.8299,22.3793 52.3979,21.2963 C52.2819,21.0013 52.1929,20.9843 51.8729,20.9713 L51.8729,20.7613 L53.4259,20.7613 Z" id="Fill-24" fill="#C59E78"></path>
            <path d="M59.8087,21.3326 C59.8087,21.0146 59.8027,21.0016 59.3027,20.9716 L59.3027,20.7616 L62.1977,20.7616 L62.1977,21.6926 L61.9877,21.6926 C61.8907,21.1096 61.7837,20.9956 61.1627,20.9956 L60.6387,20.9956 C60.4587,20.9956 60.4347,21.0196 60.4347,21.1996 L60.4347,22.5006 L61.1807,22.5006 C61.6377,22.5006 61.6317,22.3546 61.6867,22.0076 L61.9027,22.0076 L61.9027,23.2646 L61.6867,23.2646 C61.6377,22.9276 61.6447,22.7646 61.1807,22.7646 L60.4347,22.7646 L60.4347,23.9506 C60.4347,24.3176 60.4997,24.4266 61.1387,24.4266 C61.8497,24.4266 62.0787,24.2996 62.2097,23.6256 L62.4257,23.6256 L62.3117,24.6726 L59.3027,24.6726 L59.3027,24.4616 C59.8027,24.4266 59.8087,24.4136 59.8087,24.1006 L59.8087,21.3326 Z" id="Fill-26" fill="#C59E78"></path>
            <path d="M67.2638,22.5728 L67.6918,22.5728 C68.2088,22.5728 68.4858,22.3548 68.4858,21.7848 C68.4858,21.0138 68.0168,21.0088 67.6078,21.0088 C67.2458,21.0088 67.2638,21.0508 67.2638,21.2848 L67.2638,22.5728 Z M67.2638,24.0998 C67.2638,24.4138 67.2828,24.4268 67.7698,24.4618 L67.7698,24.6728 L66.1328,24.6728 L66.1328,24.4618 C66.6198,24.4268 66.6328,24.4138 66.6328,24.0998 L66.6328,21.3328 C66.6328,21.0138 66.6258,21.0018 66.1328,20.9708 L66.1328,20.7608 L67.9268,20.7608 C68.8888,20.7608 69.1548,21.2068 69.1548,21.7298 C69.1548,22.2608 68.7868,22.5848 68.2568,22.6988 L68.2568,22.7048 C68.8468,22.8438 69.0028,23.2948 69.0578,23.7578 C69.1068,24.1188 69.2008,24.4138 69.6348,24.4618 L69.6348,24.6728 L69.1478,24.6728 C68.8048,24.6728 68.5888,24.5578 68.4928,24.1968 C68.4308,23.9438 68.3598,23.4378 68.3238,23.3188 C68.2148,22.9218 67.9028,22.8188 67.6188,22.8188 L67.2638,22.8188 L67.2638,24.0998 Z" id="Fill-28" fill="#C59E78"></path>
            <path d="M75.4405,21.7544 C75.3325,21.1754 75.0905,20.9114 74.6155,20.9114 C74.1525,20.9114 73.8925,21.2064 73.8925,21.6154 C73.8925,22.0424 74.3685,22.2534 74.7175,22.3924 C75.3855,22.6394 75.8915,22.8794 75.8915,23.6074 C75.8915,24.2214 75.4885,24.7694 74.4595,24.7694 C74.0805,24.7694 73.5695,24.6664 73.3275,24.4134 L73.2675,23.5114 L73.4835,23.5114 C73.6345,24.1544 73.9765,24.5234 74.5015,24.5234 C74.9885,24.5234 75.2835,24.2454 75.2835,23.7944 C75.2835,23.3484 74.8145,23.0964 74.4055,22.9514 C73.8205,22.7464 73.3345,22.5004 73.3345,21.7894 C73.3345,21.0144 73.9345,20.6584 74.6525,20.6584 C75.0305,20.6584 75.4335,20.7614 75.6625,20.9044 L75.6625,21.7544 L75.4405,21.7544 Z" id="Fill-30" fill="#C59E78"></path>
            <path d="M80.7403,24.1001 C80.7403,24.4191 80.7593,24.4261 81.2523,24.4611 L81.2523,24.6721 L79.6143,24.6721 L79.6143,24.4611 C80.1023,24.4261 80.1203,24.4191 80.1203,24.1001 L80.1203,21.3321 C80.1203,21.0011 80.1073,21.0011 79.6143,20.9711 L79.6143,20.7611 L81.2523,20.7611 L81.2523,20.9711 C80.7593,21.0011 80.7403,21.0081 80.7403,21.3321 L80.7403,24.1001 Z" id="Fill-32" fill="#C59E78"></path>
            <path d="M92.7657,24.6724 L92.7657,24.4614 C93.3367,24.4264 93.3557,24.4074 93.3557,24.1004 L93.3557,23.3604 C93.3557,23.2394 93.3307,23.1384 93.2697,23.0174 C92.9817,22.4764 92.6267,21.8264 92.3017,21.2544 C92.1627,21.0144 92.1037,20.9844 91.8017,20.9714 L91.8017,20.7614 L93.3247,20.7614 L93.3247,20.9714 L92.9817,21.0084 C92.8977,21.0144 92.8797,21.0804 92.9337,21.1824 C93.1797,21.6934 93.5047,22.2604 93.8247,22.8374 L93.8357,22.8374 C94.1617,22.2164 94.4977,21.5014 94.6367,21.1574 C94.6667,21.0734 94.6727,21.0084 94.5827,21.0014 L94.2447,20.9714 L94.2447,20.7614 L95.5217,20.7614 L95.5217,20.9714 C95.1487,20.9894 95.1297,21.0014 94.9447,21.3084 C94.7567,21.6094 94.3417,22.4094 94.0527,22.9864 C93.9977,23.0964 93.9807,23.1804 93.9807,23.3244 L93.9807,24.1004 C93.9807,24.4074 93.9977,24.4264 94.5777,24.4614 L94.5777,24.6724 L92.7657,24.6724 Z" id="Fill-36" fill="#C59E78"></path>
            <path d="M86.8927,24.1001 C86.8927,24.3471 86.8997,24.4191 87.2237,24.4371 L87.5127,24.4561 L87.5127,24.6721 L85.6537,24.6721 L85.6537,24.4561 L85.9307,24.4371 C86.2497,24.4191 86.2677,24.3471 86.2677,24.1001 L86.2677,21.0011 L85.9657,21.0011 C85.3217,21.0011 85.2267,21.1161 85.1417,21.7781 L84.9247,21.7781 L84.9247,20.7611 L88.2357,20.7611 L88.2357,21.7781 L88.0177,21.7781 C87.9337,21.1101 87.8497,21.0011 87.2007,21.0011 L86.8927,21.0011 L86.8927,24.1001 Z" id="Fill-34" fill="#C59E78"></path>
            <polygon id="Fill-39" fill="#C59E78" points="31.231 17.5022 95.522 17.5022 95.522 17.2202 31.231 17.2202"></polygon>
        </g>
    </g>
</svg>