<?xml version="1.0" encoding="UTF-8"?>
<svg width="192px" height="53px" viewBox="0 0 192 53" version="1.1" xmlns="http://www.w3.org/2000/svg" xmlns:xlink="http://www.w3.org/1999/xlink">
    <title>LOGO - ShiftUniversity</title>
    <defs>
        <polygon id="path-1" points="0.001 1.288 55.511 1.288 55.511 10.7076 0.001 10.7076"></polygon>
        <polygon id="path-3" points="1.6034 0.8104 9.042 0.8104 9.042 8.6324 1.6034 8.6324"></polygon>
        <polygon id="path-5" points="0 54.7124 191.042 54.7124 191.042 2.0004 0 2.0004"></polygon>
    </defs>
    <g id="Symbols" stroke="none" stroke-width="1" fill="none" fill-rule="evenodd">
        <g id="HEADER---Desktop" transform="translate(-624.000000, -18.000000)">
            <g id="HEADER">
                <g>
                    <g id="LOGO---ShiftUniversity" transform="translate(624.000000, 16.000000)">
                        <g id="Group-41">
                            <path d="M40.47,32.0792 C40.398,33.9632 39.912,36.5612 37.224,40.8852 C36.344,42.2972 35.26,43.6632 34.112,44.9252 L34.112,21.0732 C34.112,19.3172 35.536,17.8932 37.292,17.8932 C39.05,17.8932 40.47,19.3172 40.47,21.0732 L40.47,32.0792 Z M30.934,48.0852 C29.742,49.1652 28.626,50.0772 27.756,50.7572 C26.886,50.0772 25.77,49.1652 24.578,48.0852 L24.578,21.0732 C24.578,19.3172 26.002,17.8932 27.756,17.8932 C29.512,17.8932 30.934,19.3172 30.934,21.0732 L30.934,48.0852 Z M21.398,44.9252 C20.254,43.6632 19.168,42.2972 18.288,40.8852 C15.6,36.5612 15.112,33.9612 15.042,32.0772 L15.042,21.0732 C15.042,19.3172 16.464,17.8932 18.22,17.8932 C19.974,17.8932 21.398,19.3172 21.398,21.0732 L21.398,44.9252 Z M43.65,30.2292 L43.65,14.7152 L11.862,14.7152 L11.862,30.2292 C11.862,32.5292 11.44,35.8912 15.59,42.5652 C19.738,49.2352 27.756,54.7112 27.756,54.7112 C27.756,54.7112 35.772,49.2352 39.924,42.5652 C44.072,35.8912 43.65,32.5292 43.65,30.2292 L43.65,30.2292 Z" id="Fill-1" fill="#C59E78"></path>
                            <path d="M45.2394,10.7414 C45.2394,12.0574 44.1714,13.1254 42.8534,13.1254 L12.6554,13.1254 C11.3394,13.1254 10.2734,12.0574 10.2734,10.7414 C10.2734,9.4254 11.3394,8.3574 12.6554,8.3574 L42.8534,8.3574 C44.1714,8.3574 45.2394,9.4254 45.2394,10.7414" id="Fill-3" fill="#C59E78"></path>
                            <g id="Group-7" transform="translate(0.000000, 0.712400)">
                                <mask id="mask-2" fill="white">
                                    <use xlink:href="#path-1"></use>
                                </mask>
                                <g id="Clip-6"></g>
                                <path d="M50.803,1.2876 L4.711,1.2876 C2.109,1.2876 0.001,3.3956 0.001,5.9976 C0.001,8.5996 2.109,10.7076 4.711,10.7076 C7.293,10.7076 9.387,8.6296 9.419,6.0556 L46.093,6.0556 C46.123,8.6296 48.221,10.7076 50.803,10.7076 C53.403,10.7076 55.511,8.5996 55.511,5.9976 C55.511,3.3956 53.403,1.2876 50.803,1.2876" id="Fill-5" fill="#C59E78" mask="url(#mask-2)"></path>
                            </g>
                            <path d="M75.1818,13.0382 C74.3698,9.8042 72.5458,8.4442 70.3138,8.4442 C68.1158,8.4442 66.8318,9.8042 66.8318,11.5862 C66.8318,13.7942 69.1638,14.6702 71.5638,15.6382 C74.7758,16.8482 77.6818,18.0262 77.6818,21.8062 C77.6818,24.7982 75.6558,27.9122 69.4338,27.9122 C67.2698,27.9122 64.3638,27.5182 62.7738,26.2482 L62.3678,21.1702 L63.5178,21.1702 C64.6678,24.6762 66.8318,26.6722 69.4338,26.6722 C71.6998,26.6722 73.2218,25.5822 73.2218,23.3762 C73.2218,21.4722 71.6658,20.3542 68.8938,19.3262 C65.2758,17.9662 62.6038,16.6362 62.6038,13.0982 C62.6038,9.5622 65.2418,7.1742 70.3818,7.1742 C72.3758,7.1742 74.7758,7.5962 76.3318,8.4442 L76.3318,13.0382 L75.1818,13.0382 Z" id="Fill-8" fill="#1B4587"></path>
                            <path d="M95.803,17.6036 L95.803,24.6456 C95.803,26.1276 96.007,26.2496 98.407,26.3696 L98.407,27.4276 L88.365,27.4276 L88.365,26.3696 C90.767,26.2496 90.971,26.1276 90.971,24.6456 L90.971,10.4396 C90.971,8.9576 90.767,8.8056 88.365,8.7156 L88.365,7.6876 L98.407,7.6876 L98.407,8.7156 C96.007,8.8056 95.803,8.9576 95.803,10.4396 L95.803,16.3036 L104.525,16.3036 L104.525,10.4396 C104.525,8.9576 104.325,8.8056 101.923,8.7156 L101.923,7.6876 L111.963,7.6876 L111.963,8.7156 C109.563,8.8056 109.359,8.9276 109.359,10.4396 L109.359,24.6456 C109.359,26.1576 109.563,26.2496 111.963,26.3696 L111.963,27.4276 L101.923,27.4276 L101.923,26.3696 C104.325,26.2496 104.525,26.1576 104.525,24.6456 L104.525,17.6036 L95.803,17.6036 Z" id="Fill-10" fill="#1B4587"></path>
                            <path d="M129.9514,24.6466 C129.9514,26.1286 130.1534,26.2486 132.5554,26.3706 L132.5554,27.4286 L122.5494,27.4286 L122.5494,26.3706 C124.9134,26.2486 125.1514,26.1286 125.1514,24.6466 L125.1514,10.4386 C125.1514,8.9586 124.9474,8.8066 122.5494,8.7166 L122.5494,7.6886 L132.5554,7.6886 L132.5554,8.7166 C130.1534,8.8066 129.9514,8.9266 129.9514,10.4386 L129.9514,24.6466 Z" id="Fill-12" fill="#1B4587"></path>
                            <path d="M159.9044,7.6876 L159.9044,12.8556 L158.7204,12.8556 C157.8424,10.0456 157.2684,8.9276 153.8524,8.9276 L151.6544,8.9276 C150.7424,8.9276 150.5384,9.1076 150.5384,9.9556 L150.5384,16.9076 L154.1904,16.9076 C156.3544,16.9076 156.7264,16.3036 157.1664,14.2776 L158.3484,14.2776 L158.3484,20.9276 L157.1664,20.9276 C156.7264,18.9036 156.3544,18.2696 154.1904,18.2696 L150.5384,18.2696 L150.5384,24.6456 C150.5384,26.1576 150.7424,26.2796 153.6484,26.3696 L153.6484,27.4276 L143.1364,27.4276 L143.1364,26.3696 C145.5344,26.2796 145.7384,26.1576 145.7384,24.6456 L145.7384,10.4396 C145.7384,8.9276 145.5344,8.8056 143.1364,8.7156 L143.1364,7.6876 L159.9044,7.6876 Z" id="Fill-14" fill="#1B4587"></path>
                            <path d="M182.1154,24.7072 C182.1154,25.7952 182.2854,26.1892 183.5354,26.2792 L185.2934,26.4012 L185.2934,27.4272 L174.1394,27.4272 L174.1394,26.4012 L175.9294,26.2792 C177.1114,26.1892 177.3154,25.7952 177.3154,24.7072 L177.3154,8.9272 L175.8954,8.9272 C172.7854,8.9272 172.3434,10.0152 171.3994,12.9772 L170.2174,12.9772 L170.2174,7.6872 L189.2154,7.6872 L189.2154,12.9772 L188.0314,12.9772 C187.0834,10.0152 186.6454,8.9272 183.5354,8.9272 L182.1154,8.9272 L182.1154,24.7072 Z" id="Fill-16" fill="#1B4587"></path>
                            <path d="M70.9006,41.5226 L70.9006,41.9326 C69.9146,42.0026 69.8766,42.0286 69.8766,42.6646 L69.8766,46.5046 C69.8766,47.1666 69.7446,47.7826 69.5646,48.1786 C69.0326,49.2746 67.8066,49.5386 66.6506,49.5386 C65.5086,49.5386 64.3526,49.2606 63.8226,48.1906 C63.6166,47.8046 63.4986,47.1926 63.4986,46.5286 L63.4986,42.6646 C63.4986,42.0286 63.4746,42.0026 62.4626,41.9426 L62.4626,41.5226 L65.7486,41.5226 L65.7486,41.9426 C64.7846,42.0026 64.7486,42.0286 64.7486,42.6646 L64.7486,46.2506 C64.7486,47.5886 65.0626,49.0466 66.6746,49.0466 C68.3366,49.0466 68.6726,47.6846 68.6726,46.2506 L68.6726,42.6646 C68.6726,42.0286 68.6366,42.0026 67.6746,41.9426 L67.6746,41.5226 L70.9006,41.5226 Z" id="Fill-18" fill="#1B4587"></path>
                            <path d="M84.3518,49.3448 C82.7638,47.0568 81.2478,44.8828 79.6458,42.6168 L79.6378,42.6168 L79.6378,46.9388 C79.6378,47.5748 79.6578,48.0348 79.7078,48.4068 C79.7798,48.8988 80.1398,48.8648 80.8618,48.9228 L80.8618,49.3448 L77.9858,49.3448 L77.9858,48.9228 C78.5758,48.8748 78.8758,48.8868 78.9498,48.3928 C78.9978,48.0208 79.0218,47.5748 79.0218,46.9388 L79.0218,42.6648 C79.0218,42.0288 78.9978,42.0028 78.0218,41.9428 L78.0218,41.5228 L80.3458,41.5228 C81.5378,43.2428 83.1138,45.5648 84.5798,47.6108 L84.5938,47.6368 L84.5938,43.9168 C84.5938,43.2808 84.5698,42.8348 84.5218,42.4608 C84.4498,41.9548 84.0158,41.9908 83.3418,41.9428 L83.3418,41.5228 L86.2298,41.5228 L86.2298,41.9428 C85.6418,41.9908 85.3518,41.9788 85.2798,42.4728 C85.2318,42.8448 85.2098,43.2668 85.2098,43.9168 L85.2098,49.3448 L84.3518,49.3448 Z" id="Fill-20" fill="#1B4587"></path>
                            <path d="M95.8712,48.2002 C95.8712,48.8382 95.9072,48.8522 96.8932,48.9222 L96.8932,49.3442 L93.6192,49.3442 L93.6192,48.9222 C94.5932,48.8522 94.6312,48.8382 94.6312,48.2002 L94.6312,42.6642 C94.6312,42.0022 94.6052,42.0022 93.6192,41.9422 L93.6192,41.5222 L96.8932,41.5222 L96.8932,41.9422 C95.9072,42.0022 95.8712,42.0162 95.8712,42.6642 L95.8712,48.2002 Z" id="Fill-22" fill="#1B4587"></path>
                            <path d="M106.8518,41.5226 L106.8518,41.9426 L106.2498,42.0026 C105.9838,42.0286 105.9618,42.1366 106.0698,42.3986 C106.7438,44.3146 107.5258,46.2766 108.1758,48.0566 L108.2118,48.0806 C108.8358,46.3126 109.5958,44.2186 110.2438,42.2106 C110.2838,42.1006 110.2838,42.0286 110.0298,42.0026 L109.3678,41.9426 L109.3678,41.5226 L111.8838,41.5226 L111.8838,41.9426 C111.2818,41.9806 111.1458,41.9546 110.9438,42.4606 C110.0638,44.7346 109.1518,47.1046 108.3198,49.3446 L107.3578,49.3446 C106.5258,47.0106 105.6598,44.7586 104.7958,42.5926 C104.5638,42.0026 104.3858,41.9686 103.7458,41.9426 L103.7458,41.5226 L106.8518,41.5226 Z" id="Fill-24" fill="#1B4587"></path>
                            <path d="M119.6174,42.6652 C119.6174,42.0292 119.6054,42.0032 118.6054,41.9432 L118.6054,41.5232 L124.3954,41.5232 L124.3954,43.3852 L123.9754,43.3852 C123.7814,42.2192 123.5674,41.9912 122.3254,41.9912 L121.2774,41.9912 C120.9174,41.9912 120.8694,42.0392 120.8694,42.3992 L120.8694,45.0012 L122.3614,45.0012 C123.2754,45.0012 123.2634,44.7092 123.3734,44.0152 L123.8054,44.0152 L123.8054,46.5292 L123.3734,46.5292 C123.2754,45.8552 123.2894,45.5292 122.3614,45.5292 L120.8694,45.5292 L120.8694,47.9012 C120.8694,48.6352 120.9994,48.8532 122.2774,48.8532 C123.6994,48.8532 124.1574,48.5992 124.4194,47.2512 L124.8514,47.2512 L124.6234,49.3452 L118.6054,49.3452 L118.6054,48.9232 C119.6054,48.8532 119.6174,48.8272 119.6174,48.2012 L119.6174,42.6652 Z" id="Fill-26" fill="#1B4587"></path>
                            <path d="M134.5276,45.1456 L135.3836,45.1456 C136.4176,45.1456 136.9716,44.7096 136.9716,43.5696 C136.9716,42.0276 136.0336,42.0176 135.2156,42.0176 C134.4916,42.0176 134.5276,42.1016 134.5276,42.5696 L134.5276,45.1456 Z M134.5276,48.1996 C134.5276,48.8276 134.5656,48.8536 135.5396,48.9236 L135.5396,49.3456 L132.2656,49.3456 L132.2656,48.9236 C133.2396,48.8536 133.2656,48.8276 133.2656,48.1996 L133.2656,42.6656 C133.2656,42.0276 133.2516,42.0036 132.2656,41.9416 L132.2656,41.5216 L135.8536,41.5216 C137.7776,41.5216 138.3096,42.4136 138.3096,43.4596 C138.3096,44.5216 137.5736,45.1696 136.5136,45.3976 L136.5136,45.4096 C137.6936,45.6876 138.0056,46.5896 138.1156,47.5156 C138.2136,48.2376 138.4016,48.8276 139.2696,48.9236 L139.2696,49.3456 L138.2956,49.3456 C137.6096,49.3456 137.1776,49.1156 136.9856,48.3936 C136.8616,47.8876 136.7196,46.8756 136.6476,46.6376 C136.4296,45.8436 135.8056,45.6376 135.2376,45.6376 L134.5276,45.6376 L134.5276,48.1996 Z" id="Fill-28" fill="#1B4587"></path>
                            <path d="M150.881,43.5088 C150.665,42.3508 150.181,41.8228 149.231,41.8228 C148.305,41.8228 147.785,42.4128 147.785,43.2308 C147.785,44.0848 148.737,44.5068 149.435,44.7848 C150.771,45.2788 151.783,45.7588 151.783,47.2148 C151.783,48.4428 150.977,49.5388 148.919,49.5388 C148.161,49.5388 147.139,49.3328 146.655,48.8268 L146.535,47.0228 L146.967,47.0228 C147.269,48.3088 147.953,49.0468 149.003,49.0468 C149.977,49.0468 150.567,48.4908 150.567,47.5888 C150.567,46.6968 149.629,46.1928 148.811,45.9028 C147.641,45.4928 146.669,45.0008 146.669,43.5788 C146.669,42.0288 147.869,41.3168 149.305,41.3168 C150.061,41.3168 150.867,41.5228 151.325,41.8088 L151.325,43.5088 L150.881,43.5088 Z" id="Fill-30" fill="#1B4587"></path>
                            <path d="M161.4806,48.2002 C161.4806,48.8382 161.5186,48.8522 162.5046,48.9222 L162.5046,49.3442 L159.2286,49.3442 L159.2286,48.9222 C160.2046,48.8522 160.2406,48.8382 160.2406,48.2002 L160.2406,42.6642 C160.2406,42.0022 160.2146,42.0022 159.2286,41.9422 L159.2286,41.5222 L162.5046,41.5222 L162.5046,41.9422 C161.5186,42.0022 161.4806,42.0162 161.4806,42.6642 L161.4806,48.2002 Z" id="Fill-32" fill="#1B4587"></path>
                            <path d="M173.7854,48.2002 C173.7854,48.6942 173.7994,48.8382 174.4474,48.8742 L175.0254,48.9122 L175.0254,49.3442 L171.3074,49.3442 L171.3074,48.9122 L171.8614,48.8742 C172.4994,48.8382 172.5354,48.6942 172.5354,48.2002 L172.5354,42.0022 L171.9314,42.0022 C170.6434,42.0022 170.4534,42.2322 170.2834,43.5562 L169.8494,43.5562 L169.8494,41.5222 L176.4714,41.5222 L176.4714,43.5562 L176.0354,43.5562 C175.8674,42.2202 175.6994,42.0022 174.4014,42.0022 L173.7854,42.0022 L173.7854,48.2002 Z" id="Fill-34" fill="#1B4587"></path>
                            <g id="Group-38" transform="translate(182.000000, 40.712400)">
                                <mask id="mask-4" fill="white">
                                    <use xlink:href="#path-3"></use>
                                </mask>
                                <g id="Clip-37"></g>
                                <path d="M3.5314,8.6324 L3.5314,8.2104 C4.6734,8.1404 4.7114,8.1024 4.7114,7.4884 L4.7114,6.0084 C4.7114,5.7664 4.6614,5.5644 4.5394,5.3224 C3.9634,4.2404 3.2534,2.9404 2.6034,1.7964 C2.3254,1.3164 2.2074,1.2564 1.6034,1.2304 L1.6034,0.8104 L4.6494,0.8104 L4.6494,1.2304 L3.9634,1.3044 C3.7954,1.3164 3.7594,1.4484 3.8674,1.6524 C4.3594,2.6744 5.0094,3.8084 5.6494,4.9624 L5.6714,4.9624 C6.3234,3.7204 6.9954,2.2904 7.2734,1.6024 C7.3334,1.4344 7.3454,1.3044 7.1654,1.2904 L6.4894,1.2304 L6.4894,0.8104 L9.0434,0.8104 L9.0434,1.2304 C8.2974,1.2664 8.2594,1.2904 7.8894,1.9044 C7.5134,2.5064 6.6834,4.1064 6.1054,5.2604 C5.9954,5.4804 5.9614,5.6484 5.9614,5.9364 L5.9614,7.4884 C5.9614,8.1024 5.9954,8.1404 7.1554,8.2104 L7.1554,8.6324 L3.5314,8.6324 Z" id="Fill-36" fill="#1B4587" mask="url(#mask-4)"></path>
                            </g>
                            <mask id="mask-6" fill="white">
                                <use xlink:href="#path-5"></use>
                            </mask>
                            <g id="Clip-40"></g>
                            <polygon id="Fill-39" fill="#1B4587" mask="url(#mask-6)" points="62.462 35.0044 191.044 35.0044 191.044 34.4404 62.462 34.4404"></polygon>
                        </g>
                    </g>
                </g>
            </g>
        </g>
    </g>
</svg>
